Disc Title:     Cloudy With A Chance Of Meatballs 2 – Blu-ray™
Disc Label:     Cloudy.With.a.Chance.of.Meatballs.2.2013.1080p.CEE.Blu-ray.AVC.DTS-HD.MA.5.1-HDCLUB
Disc Size:      40,503,481,626 bytes
Protection:     AACS
Extras:         BD-Java
BDInfo:         0.7.5.5

Notes:          

BDINFO HOME:
  Cinema Squid (old)
    http://www.cinemasquid.com/blu-ray/tools/bdinfo
  UniqProject GitHub (new)
   https://github.com/UniqProject/BDInfo

INCLUDES FORUMS REPORT FOR:
  AVS Forum Blu-ray Audio and Video Specifications Thread
    http://www.avsforum.com/avs-vb/showthread.php?t=1155731


********************
PLAYLIST: 00001.MPLS
********************

<--- BEGIN FORUMS PASTE --->
[code]
                                                                                                                Total   Video                                             
Title                                                           Codec   Length  Movie Size      Disc Size       Bitrate Bitrate Main Audio Track                          Secondary Audio Track
-----                                                           ------  ------- --------------  --------------  ------- ------- ------------------                        ---------------------
00001.MPLS                                                      AVC     1:34:49 28,132,159,488  40,503,481,626  39.56   27.61   DTS-HD Master 5.1 2532Kbps (48kHz/24-bit) 
[/code]

[code]

DISC INFO:

Disc Title:     Cloudy With A Chance Of Meatballs 2 – Blu-ray™
Disc Label:     Cloudy.With.a.Chance.of.Meatballs.2.2013.1080p.CEE.Blu-ray.AVC.DTS-HD.MA.5.1-HDCLUB
Disc Size:      40,503,481,626 bytes
Protection:     AACS
Extras:         BD-Java
BDInfo:         0.7.5.5

PLAYLIST REPORT:

Name:                   00001.MPLS
Length:                 1:34:49.683 (h:m:s.ms)
Size:                   28,132,159,488 bytes
Total Bitrate:          39.56 Mbps

Angle 1 Length:         0:00:17.726 (h:m:s.ms) / 1:34:49.683 (h:m:s.ms)
Angle 1 Size:           89,149,440 bytes / 28,132,048,896 bytes
Angle 1 Total Bitrate:  40.23 Mbps / 39.56 Mbps

All Angles Length:      1:35:07.410 (h:m:s.ms)
All Angles Size:        28,221,308,928 bytes
All Angles Bitrate:     39.56 Mbps

(*) Indicates included stream hidden by this playlist.

VIDEO:

Codec                   Bitrate             Description     
-----                   -------             -----------     
MPEG-4 AVC Video        27606 kbps          1080p / 23.976 fps / 16:9 / High Profile 4.1
MPEG-4 AVC Video (1)    88 (28198) kbps     1080p / 23.976 fps / 16:9 / High Profile 4.1

AUDIO:

Codec                           Language        Bitrate         Description     
-----                           --------        -------         -----------     
DTS-HD Master Audio             English         2532 kbps       5.1 / 48 kHz /  2532 kbps / 24-bit (DTS Core: 5.1 / 48 kHz /  1509 kbps / 24-bit)
Dolby Digital Audio             Bulgarian       640 kbps        5.1 / 48 kHz /   640 kbps / DN -31dB
Dolby Digital Audio             Croatian        640 kbps        5.1 / 48 kHz /   640 kbps / DN -31dB
Dolby Digital Audio             Estonian        640 kbps        5.1 / 48 kHz /   640 kbps / DN -31dB
Dolby Digital Audio             Greek           640 kbps        5.1 / 48 kHz /   640 kbps / DN -31dB
Dolby Digital Audio             Latvian         640 kbps        5.1 / 48 kHz /   640 kbps / DN -31dB
Dolby Digital Audio             Lithuanian      640 kbps        5.1 / 48 kHz /   640 kbps / DN -31dB
Dolby Digital Audio             Romanian        640 kbps        5.1 / 48 kHz /   640 kbps / DN -31dB
Dolby Digital Audio             Russian         640 kbps        5.1 / 48 kHz /   640 kbps / DN -31dB
Dolby Digital Audio             Slovenian       640 kbps        5.1 / 48 kHz /   640 kbps / DN -31dB
Dolby Digital Audio             English         192 kbps        2.0 / 48 kHz /   192 kbps / DN -31dB
Dolby Digital Audio             Ukrainian       640 kbps        5.1 / 48 kHz /   640 kbps / DN -31dB

SUBTITLES:

Codec                           Language        Bitrate         Description     
-----                           --------        -------         -----------     
Presentation Graphics           English         32.880 kbps                     
Presentation Graphics           Bulgarian       34.355 kbps                     
Presentation Graphics           Croatian        29.735 kbps                     
Presentation Graphics           Greek           32.688 kbps                     
Presentation Graphics           Romanian        30.978 kbps                     
Presentation Graphics           Serbian         30.506 kbps                     
Presentation Graphics           Slovenian       25.581 kbps                     
Presentation Graphics           Russian         0.160 kbps                      
* Presentation Graphics         Portuguese      0.000 kbps                      
* Presentation Graphics         Slovak          0.000 kbps                      
* Presentation Graphics         Turkish         0.000 kbps                      
Presentation Graphics           English         68.663 kbps                     
* Presentation Graphics         English         0.000 kbps                      

FILES:

Name            Time In         Length          Size            Total Bitrate   
----            -------         ------          ----            -------------   
00913.M2TS      0:00:00.000     0:07:34.745     2,254,239,744   39,657          
00915.M2TS      0:07:34.745     0:00:17.726     89,260,032      40,284          
00916.M2TS (1)  0:07:34.745     0:00:17.726     89,149,440      40,234          
00914.M2TS      0:07:52.471     1:26:57.212     25,788,659,712  39,544          

CHAPTERS:

Number          Time In         Length          Avg Video Rate  Max 1-Sec Rate  Max 1-Sec Time  Max 5-Sec Rate  Max 5-Sec Time  Max 10Sec Rate  Max 10Sec Time  Avg Frame Size  Max Frame Size  Max Frame Time  
------          -------         ------          --------------  --------------  --------------  --------------  --------------  --------------  --------------  --------------  --------------  --------------  
1               0:00:00.000     0:07:12.014     27,647 kbps     48,100 kbps     00:03:06.769    34,535 kbps     00:03:05.935    30,271 kbps     00:03:03.474    144,124 bytes   713,225 bytes   00:03:02.640    
2               0:07:12.014     0:05:39.505     27,855 kbps     44,816 kbps     00:07:54.056    33,142 kbps     00:07:37.665    30,888 kbps     00:07:37.748    145,221 bytes   774,866 bytes   00:12:43.471    
3               0:12:51.520     0:05:58.900     28,136 kbps     48,047 kbps     00:14:55.769    33,073 kbps     00:15:13.829    31,777 kbps     00:15:23.547    146,689 bytes   761,091 bytes   00:15:08.282    
4               0:18:50.420     0:07:07.969     28,114 kbps     43,034 kbps     00:19:19.575    34,353 kbps     00:22:31.767    33,109 kbps     00:22:32.309    146,576 bytes   755,050 bytes   00:24:10.031    
5               0:25:58.390     0:05:58.691     27,884 kbps     45,892 kbps     00:31:50.992    33,522 kbps     00:29:49.287    32,154 kbps     00:29:49.120    145,372 bytes   755,149 bytes   00:29:28.141    
6               0:31:57.081     0:04:56.170     27,547 kbps     41,510 kbps     00:34:12.800    33,555 kbps     00:34:50.797    31,336 kbps     00:34:48.252    143,618 bytes   762,716 bytes   00:34:53.424    
7               0:36:53.252     0:02:35.655     27,922 kbps     39,789 kbps     00:37:15.775    30,463 kbps     00:37:15.775    29,152 kbps     00:38:23.426    145,570 bytes   711,176 bytes   00:39:19.315    
8               0:39:28.908     0:01:38.932     28,017 kbps     37,651 kbps     00:39:52.181    31,616 kbps     00:39:49.553    29,757 kbps     00:39:43.172    146,065 bytes   762,028 bytes   00:39:43.422    
9               0:41:07.840     0:04:20.176     27,598 kbps     38,814 kbps     00:43:08.294    32,772 kbps     00:42:59.743    31,859 kbps     00:43:00.411    143,883 bytes   761,772 bytes   00:43:31.025    
10              0:45:28.016     0:04:20.677     27,998 kbps     37,612 kbps     00:49:15.410    30,522 kbps     00:45:57.588    29,618 kbps     00:45:40.404    145,968 bytes   707,857 bytes   00:45:39.611    
11              0:49:48.694     0:04:52.709     27,372 kbps     40,255 kbps     00:53:57.400    31,853 kbps     00:53:51.728    29,617 kbps     00:53:34.044    142,707 bytes   782,903 bytes   00:54:10.580    
12              0:54:41.403     0:05:58.483     27,881 kbps     41,436 kbps     01:00:26.205    32,894 kbps     01:00:14.736    30,287 kbps     00:57:45.795    145,359 bytes   749,025 bytes   00:59:56.634    
13              1:00:39.886     0:06:08.034     28,213 kbps     44,635 kbps     01:04:24.735    32,324 kbps     01:06:06.504    31,851 kbps     01:06:33.572    147,088 bytes   752,237 bytes   01:01:00.031    
14              1:06:47.920     0:06:07.033     27,918 kbps     50,582 kbps     01:12:16.415    33,457 kbps     01:08:27.561    32,039 kbps     01:10:07.661    145,550 bytes   782,139 bytes   01:10:16.879    
15              1:12:54.953     0:08:30.635     27,666 kbps     47,003 kbps     01:16:52.357    33,360 kbps     01:19:36.771    32,559 kbps     01:19:24.509    144,239 bytes   775,276 bytes   01:21:10.198    
16              1:21:25.589     0:13:24.094     26,139 kbps     54,475 kbps     01:24:47.457    34,840 kbps     01:26:42.113    32,843 kbps     01:26:37.108    136,282 bytes   779,483 bytes   01:28:32.932    

STREAM DIAGNOSTICS:

File            PID             Type            Codec           Language                Seconds                 Bitrate                 Bytes           Packets         
----            ---             ----            -----           --------                --------------          --------------          -------------   -----           
00913.M2TS      4113 (0x1011)   0x1B            AVC                                     454.621                 27,648                  1,571,183,626   8,545,478       
00913.M2TS      4352 (0x1100)   0x86            DTS-HD MA       eng (English)           454.621                 2,511                   142,685,388     848,760         
00913.M2TS      4353 (0x1101)   0x81            AC3             bul (Bulgarian)         454.621                 640                     36,380,160      213,165         
00913.M2TS      4354 (0x1102)   0x81            AC3             hrv (Croatian)          454.621                 640                     36,380,160      213,165         
00913.M2TS      4355 (0x1103)   0x81            AC3             est (Estonian)          454.621                 640                     36,380,160      213,165         
00913.M2TS      4356 (0x1104)   0x81            AC3             ell (Greek)             454.621                 640                     36,380,160      213,165         
00913.M2TS      4357 (0x1105)   0x81            AC3             lav (Latvian)           454.621                 640                     36,380,160      213,165         
00913.M2TS      4358 (0x1106)   0x81            AC3             lit (Lithuanian)        454.621                 640                     36,380,160      213,165         
00913.M2TS      4359 (0x1107)   0x81            AC3             ron (Romanian)          454.621                 640                     36,380,160      213,165         
00913.M2TS      4360 (0x1108)   0x81            AC3             rus (Russian)           454.621                 640                     36,380,160      213,165         
00913.M2TS      4361 (0x1109)   0x81            AC3             slv (Slovenian)         454.621                 640                     36,380,160      213,165         
00913.M2TS      4362 (0x110A)   0x81            AC3             eng (English)           454.621                 192                     10,914,048      71,055          
00913.M2TS      4363 (0x110B)   0x81            AC3             ukr (Ukrainian)         454.621                 640                     36,380,160      213,165         
00913.M2TS      4608 (0x1200)   0x90            PGS             eng (English)           454.621                 45                      2,576,251       14,986          
00913.M2TS      4609 (0x1201)   0x90            PGS             bul (Bulgarian)         454.621                 49                      2,793,486       16,203          
00913.M2TS      4610 (0x1202)   0x90            PGS             hrv (Croatian)          454.621                 39                      2,231,971       13,146          
00913.M2TS      4611 (0x1203)   0x90            PGS             ell (Greek)             454.621                 45                      2,557,781       14,918          
00913.M2TS      4612 (0x1204)   0x90            PGS             ron (Romanian)          454.621                 43                      2,433,269       14,232          
00913.M2TS      4613 (0x1205)   0x90            PGS             srp (Serbian)           454.621                 43                      2,436,299       14,258          
00913.M2TS      4614 (0x1206)   0x90            PGS             slv (Slovenian)         454.621                 37                      2,115,272       12,491          
00913.M2TS      4615 (0x1207)   0x90            PGS             rus (Russian)           454.621                 1                       35,119          203             
00913.M2TS      4616 (0x1208)   0x90            PGS             por (Portuguese)        454.621                 0                       70              7               
00913.M2TS      4617 (0x1209)   0x90            PGS             slk (Slovak)            454.621                 0                       70              7               
00913.M2TS      4618 (0x120A)   0x90            PGS             tur (Turkish)           454.621                 0                       70              7               
00913.M2TS      4619 (0x120B)   0x90            PGS             eng (English)           454.621                 72                      4,115,199       23,307          
00913.M2TS      4620 (0x120C)   0x90            PGS             eng (English)           454.621                 0                       70              7               
00915.M2TS      4113 (0x1011)   0x1B            AVC                                     17.643                  28,379                  62,584,443      340,388         
00915.M2TS      4352 (0x1100)   0x86            DTS-HD MA       eng (English)           17.643                  2,750                   6,063,984       35,752          
00915.M2TS      4353 (0x1101)   0x81            AC3             bul (Bulgarian)         17.643                  643                     1,418,240       8,310           
00915.M2TS      4354 (0x1102)   0x81            AC3             hrv (Croatian)          17.643                  643                     1,418,240       8,310           
00915.M2TS      4355 (0x1103)   0x81            AC3             est (Estonian)          17.643                  643                     1,418,240       8,310           
00915.M2TS      4356 (0x1104)   0x81            AC3             ell (Greek)             17.643                  643                     1,418,240       8,310           
00915.M2TS      4357 (0x1105)   0x81            AC3             lav (Latvian)           17.643                  643                     1,418,240       8,310           
00915.M2TS      4358 (0x1106)   0x81            AC3             lit (Lithuanian)        17.643                  643                     1,418,240       8,310           
00915.M2TS      4359 (0x1107)   0x81            AC3             ron (Romanian)          17.643                  643                     1,418,240       8,310           
00915.M2TS      4360 (0x1108)   0x81            AC3             rus (Russian)           17.643                  643                     1,418,240       8,310           
00915.M2TS      4361 (0x1109)   0x81            AC3             slv (Slovenian)         17.643                  643                     1,418,240       8,310           
00915.M2TS      4362 (0x110A)   0x81            AC3             eng (English)           17.643                  193                     425,472         2,770           
00915.M2TS      4363 (0x110B)   0x81            AC3             ukr (Ukrainian)         17.643                  643                     1,418,240       8,310           
00915.M2TS      4608 (0x1200)   0x90            PGS             eng (English)           17.643                  4                       9,700           59              
00915.M2TS      4609 (0x1201)   0x90            PGS             bul (Bulgarian)         17.643                  19                      42,161          242             
00915.M2TS      4610 (0x1202)   0x90            PGS             hrv (Croatian)          17.643                  4                       9,016           55              
00915.M2TS      4611 (0x1203)   0x90            PGS             ell (Greek)             17.643                  4                       9,503           58              
00915.M2TS      4612 (0x1204)   0x90            PGS             ron (Romanian)          17.643                  12                      27,015          160             
00915.M2TS      4613 (0x1205)   0x90            PGS             srp (Serbian)           17.643                  8                       17,120          106             
00915.M2TS      4614 (0x1206)   0x90            PGS             slv (Slovenian)         17.643                  16                      36,032          208             
00915.M2TS      4615 (0x1207)   0x90            PGS             rus (Russian)           17.643                  20                      44,576          249             
00915.M2TS      4616 (0x1208)   0x90            PGS             por (Portuguese)        17.643                  0                       70              7               
00915.M2TS      4617 (0x1209)   0x90            PGS             slk (Slovak)            17.643                  0                       70              7               
00915.M2TS      4618 (0x120A)   0x90            PGS             tur (Turkish)           17.643                  0                       70              7               
00915.M2TS      4619 (0x120B)   0x90            PGS             eng (English)           17.643                  74                      163,854         935             
00915.M2TS      4620 (0x120C)   0x90            PGS             eng (English)           17.643                  0                       70              7               
00916.M2TS (1)  4113 (0x1011)   0x1B            AVC                                     17.643                  28,331                  62,479,277      339,816         
00916.M2TS (1)  4352 (0x1100)   0x86            DTS-HD MA       eng (English)           17.643                  2,750                   6,063,984       35,752          
00916.M2TS (1)  4353 (0x1101)   0x81            AC3             bul (Bulgarian)         17.643                  643                     1,418,240       8,310           
00916.M2TS (1)  4354 (0x1102)   0x81            AC3             hrv (Croatian)          17.643                  643                     1,418,240       8,310           
00916.M2TS (1)  4355 (0x1103)   0x81            AC3             est (Estonian)          17.643                  643                     1,418,240       8,310           
00916.M2TS (1)  4356 (0x1104)   0x81            AC3             ell (Greek)             17.643                  643                     1,418,240       8,310           
00916.M2TS (1)  4357 (0x1105)   0x81            AC3             lav (Latvian)           17.643                  643                     1,418,240       8,310           
00916.M2TS (1)  4358 (0x1106)   0x81            AC3             lit (Lithuanian)        17.643                  643                     1,418,240       8,310           
00916.M2TS (1)  4359 (0x1107)   0x81            AC3             ron (Romanian)          17.643                  643                     1,418,240       8,310           
00916.M2TS (1)  4360 (0x1108)   0x81            AC3             rus (Russian)           17.643                  643                     1,418,240       8,310           
00916.M2TS (1)  4361 (0x1109)   0x81            AC3             slv (Slovenian)         17.643                  643                     1,418,240       8,310           
00916.M2TS (1)  4362 (0x110A)   0x81            AC3             eng (English)           17.643                  193                     425,472         2,770           
00916.M2TS (1)  4363 (0x110B)   0x81            AC3             ukr (Ukrainian)         17.643                  643                     1,418,240       8,310           
00916.M2TS (1)  4608 (0x1200)   0x90            PGS             eng (English)           17.643                  4                       9,700           59              
00916.M2TS (1)  4609 (0x1201)   0x90            PGS             bul (Bulgarian)         17.643                  19                      42,161          242             
00916.M2TS (1)  4610 (0x1202)   0x90            PGS             hrv (Croatian)          17.643                  4                       9,016           55              
00916.M2TS (1)  4611 (0x1203)   0x90            PGS             ell (Greek)             17.643                  4                       9,503           58              
00916.M2TS (1)  4612 (0x1204)   0x90            PGS             ron (Romanian)          17.643                  12                      27,015          160             
00916.M2TS (1)  4613 (0x1205)   0x90            PGS             srp (Serbian)           17.643                  8                       17,120          106             
00916.M2TS (1)  4614 (0x1206)   0x90            PGS             slv (Slovenian)         17.643                  16                      36,032          208             
00916.M2TS (1)  4615 (0x1207)   0x90            PGS             rus (Russian)           17.643                  20                      44,576          249             
00916.M2TS (1)  4616 (0x1208)   0x90            PGS             por (Portuguese)        17.643                  0                       70              7               
00916.M2TS (1)  4617 (0x1209)   0x90            PGS             slk (Slovak)            17.643                  0                       70              7               
00916.M2TS (1)  4618 (0x120A)   0x90            PGS             tur (Turkish)           17.643                  0                       70              7               
00916.M2TS (1)  4619 (0x120B)   0x90            PGS             eng (English)           17.643                  74                      163,854         935             
00916.M2TS (1)  4620 (0x120C)   0x90            PGS             eng (English)           17.643                  0                       70              7               
00914.M2TS      4113 (0x1011)   0x1B            AVC                                     5217.129                27,601                  17,999,986,137  97,899,612      
00914.M2TS      4352 (0x1100)   0x86            DTS-HD MA       eng (English)           5217.129                2,533                   1,651,945,232   9,859,638       
00914.M2TS      4353 (0x1101)   0x81            AC3             bul (Bulgarian)         5217.129                640                     417,377,280     2,445,570       
00914.M2TS      4354 (0x1102)   0x81            AC3             hrv (Croatian)          5217.129                640                     417,377,280     2,445,570       
00914.M2TS      4355 (0x1103)   0x81            AC3             est (Estonian)          5217.129                640                     417,377,280     2,445,570       
00914.M2TS      4356 (0x1104)   0x81            AC3             ell (Greek)             5217.129                640                     417,377,280     2,445,570       
00914.M2TS      4357 (0x1105)   0x81            AC3             lav (Latvian)           5217.129                640                     417,377,280     2,445,570       
00914.M2TS      4358 (0x1106)   0x81            AC3             lit (Lithuanian)        5217.129                640                     417,377,280     2,445,570       
00914.M2TS      4359 (0x1107)   0x81            AC3             ron (Romanian)          5217.129                640                     417,377,280     2,445,570       
00914.M2TS      4360 (0x1108)   0x81            AC3             rus (Russian)           5217.129                640                     417,377,280     2,445,570       
00914.M2TS      4361 (0x1109)   0x81            AC3             slv (Slovenian)         5217.129                640                     417,377,280     2,445,570       
00914.M2TS      4362 (0x110A)   0x81            AC3             eng (English)           5217.129                192                     125,213,184     815,190         
00914.M2TS      4363 (0x110B)   0x81            AC3             ukr (Ukrainian)         5217.129                640                     417,377,280     2,445,570       
00914.M2TS      4608 (0x1200)   0x90            PGS             eng (English)           5217.129                32                      20,798,853      121,238         
00914.M2TS      4609 (0x1201)   0x90            PGS             bul (Bulgarian)         5217.129                33                      21,597,992      125,923         
00914.M2TS      4610 (0x1202)   0x90            PGS             hrv (Croatian)          5217.129                29                      18,906,588      111,292         
00914.M2TS      4611 (0x1203)   0x90            PGS             ell (Greek)             5217.129                32                      20,681,092      120,931         
00914.M2TS      4612 (0x1204)   0x90            PGS             ron (Romanian)          5217.129                30                      19,571,478      114,891         
00914.M2TS      4613 (0x1205)   0x90            PGS             srp (Serbian)           5217.129                30                      19,242,895      113,071         
00914.M2TS      4614 (0x1206)   0x90            PGS             slv (Slovenian)         5217.129                25                      16,042,436      95,200          
00914.M2TS      4615 (0x1207)   0x90            PGS             rus (Russian)           5217.129                0                       34,076          199             
00914.M2TS      4616 (0x1208)   0x90            PGS             por (Portuguese)        5217.129                0                       70              7               
00914.M2TS      4617 (0x1209)   0x90            PGS             slk (Slovak)            5217.129                0                       70              7               
00914.M2TS      4618 (0x120A)   0x90            PGS             tur (Turkish)           5217.129                0                       70              7               
00914.M2TS      4619 (0x120B)   0x90            PGS             eng (English)           5217.129                68                      44,554,866      252,728         
00914.M2TS      4620 (0x120C)   0x90            PGS             eng (English)           5217.129                0                       70              7               

[/code]
<---- END FORUMS PASTE ---->

QUICK SUMMARY:

Disc Title: Cloudy With A Chance Of Meatballs 2 – Blu-ray™
Disc Label: Cloudy.With.a.Chance.of.Meatballs.2.2013.1080p.CEE.Blu-ray.AVC.DTS-HD.MA.5.1-HDCLUB
Disc Size: 40,503,481,626 bytes
Protection: AACS
Playlist: 00001.MPLS
Size: 28,132,159,488 bytes
Length: 1:34:49.683
Total Bitrate: 39.56 Mbps
Video: MPEG-4 AVC Video / 27606 kbps / 1080p / 23.976 fps / 16:9 / High Profile 4.1
Video: MPEG-4 AVC Video (1) / 88 (28198) kbps / 1080p / 23.976 fps / 16:9 / High Profile 4.1
Audio: English / DTS-HD Master Audio / 5.1 / 48 kHz /  2532 kbps / 24-bit (DTS Core: 5.1 / 48 kHz /  1509 kbps / 24-bit)
Audio: Bulgarian / Dolby Digital Audio / 5.1 / 48 kHz /   640 kbps / DN -31dB
Audio: Croatian / Dolby Digital Audio / 5.1 / 48 kHz /   640 kbps / DN -31dB
Audio: Estonian / Dolby Digital Audio / 5.1 / 48 kHz /   640 kbps / DN -31dB
Audio: Greek / Dolby Digital Audio / 5.1 / 48 kHz /   640 kbps / DN -31dB
Audio: Latvian / Dolby Digital Audio / 5.1 / 48 kHz /   640 kbps / DN -31dB
Audio: Lithuanian / Dolby Digital Audio / 5.1 / 48 kHz /   640 kbps / DN -31dB
Audio: Romanian / Dolby Digital Audio / 5.1 / 48 kHz /   640 kbps / DN -31dB
Audio: Russian / Dolby Digital Audio / 5.1 / 48 kHz /   640 kbps / DN -31dB
Audio: Slovenian / Dolby Digital Audio / 5.1 / 48 kHz /   640 kbps / DN -31dB
Audio: English / Dolby Digital Audio / 2.0 / 48 kHz /   192 kbps / DN -31dB
Audio: Ukrainian / Dolby Digital Audio / 5.1 / 48 kHz /   640 kbps / DN -31dB
Subtitle: English / 32.880 kbps
Subtitle: Bulgarian / 34.355 kbps
Subtitle: Croatian / 29.735 kbps
Subtitle: Greek / 32.688 kbps
Subtitle: Romanian / 30.978 kbps
Subtitle: Serbian / 30.506 kbps
Subtitle: Slovenian / 25.581 kbps
Subtitle: Russian / 0.160 kbps
* Subtitle: Portuguese / 0.000 kbps
* Subtitle: Slovak / 0.000 kbps
* Subtitle: Turkish / 0.000 kbps
Subtitle: English / 68.663 kbps
* Subtitle: English / 0.000 kbps


********************
PLAYLIST: 00456.MPLS
********************

<--- BEGIN FORUMS PASTE --->
[code]
                                                                                                                Total   Video                                             
Title                                                           Codec   Length  Movie Size      Disc Size       Bitrate Bitrate Main Audio Track                          Secondary Audio Track
-----                                                           ------  ------- --------------  --------------  ------- ------- ------------------                        ---------------------
00456.MPLS                                                      AVC     1:26:57 25,788,659,712  40,503,481,626  39.54   27.60   DTS-HD Master 5.1 2533Kbps (48kHz/24-bit) 
[/code]

[code]

DISC INFO:

Disc Title:     Cloudy With A Chance Of Meatballs 2 – Blu-ray™
Disc Label:     Cloudy.With.a.Chance.of.Meatballs.2.2013.1080p.CEE.Blu-ray.AVC.DTS-HD.MA.5.1-HDCLUB
Disc Size:      40,503,481,626 bytes
Protection:     AACS
Extras:         BD-Java
BDInfo:         0.7.5.5

PLAYLIST REPORT:

Name:                   00456.MPLS
Length:                 1:26:57.212 (h:m:s.ms)
Size:                   25,788,659,712 bytes
Total Bitrate:          39.54 Mbps

VIDEO:

Codec                   Bitrate             Description     
-----                   -------             -----------     
MPEG-4 AVC Video        27601 kbps          1080p / 23.976 fps / 16:9 / High Profile 4.1

AUDIO:

Codec                           Language        Bitrate         Description     
-----                           --------        -------         -----------     
DTS-HD Master Audio             English         2533 kbps       5.1 / 48 kHz /  2533 kbps / 24-bit (DTS Core: 5.1 / 48 kHz /  1509 kbps / 24-bit)
Dolby Digital Audio             Bulgarian       640 kbps        5.1 / 48 kHz /   640 kbps / DN -31dB
Dolby Digital Audio             Croatian        640 kbps        5.1 / 48 kHz /   640 kbps / DN -31dB
Dolby Digital Audio             Estonian        640 kbps        5.1 / 48 kHz /   640 kbps / DN -31dB
Dolby Digital Audio             Greek           640 kbps        5.1 / 48 kHz /   640 kbps / DN -31dB
Dolby Digital Audio             Latvian         640 kbps        5.1 / 48 kHz /   640 kbps / DN -31dB
Dolby Digital Audio             Lithuanian      640 kbps        5.1 / 48 kHz /   640 kbps / DN -31dB
Dolby Digital Audio             Romanian        640 kbps        5.1 / 48 kHz /   640 kbps / DN -31dB
Dolby Digital Audio             Russian         640 kbps        5.1 / 48 kHz /   640 kbps / DN -31dB
Dolby Digital Audio             Slovenian       640 kbps        5.1 / 48 kHz /   640 kbps / DN -31dB
Dolby Digital Audio             English         192 kbps        2.0 / 48 kHz /   192 kbps / DN -31dB
Dolby Digital Audio             Ukrainian       640 kbps        5.1 / 48 kHz /   640 kbps / DN -31dB

SUBTITLES:

Codec                           Language        Bitrate         Description     
-----                           --------        -------         -----------     
Presentation Graphics           English         31.893 kbps                     
Presentation Graphics           Bulgarian       33.118 kbps                     
Presentation Graphics           Croatian        28.991 kbps                     
Presentation Graphics           Greek           31.712 kbps                     
Presentation Graphics           Romanian        30.011 kbps                     
Presentation Graphics           Serbian         29.507 kbps                     
Presentation Graphics           Slovenian       24.599 kbps                     
Presentation Graphics           Russian         0.052 kbps                      
Presentation Graphics           Portuguese      0.000 kbps                      
Presentation Graphics           Slovak          0.000 kbps                      
Presentation Graphics           Turkish         0.000 kbps                      
Presentation Graphics           English         68.320 kbps                     
Presentation Graphics           English         0.000 kbps                      

FILES:

Name            Time In         Length          Size            Total Bitrate   
----            -------         ------          ----            -------------   
00914.M2TS      0:00:00.000     1:26:57.212     25,788,659,712  39,544          

CHAPTERS:

Number          Time In         Length          Avg Video Rate  Max 1-Sec Rate  Max 1-Sec Time  Max 5-Sec Rate  Max 5-Sec Time  Max 10Sec Rate  Max 10Sec Time  Avg Frame Size  Max Frame Size  Max Frame Time  
------          -------         ------          --------------  --------------  --------------  --------------  --------------  --------------  --------------  --------------  --------------  --------------  
1               0:00:00.000     1:26:57.212     27,601 kbps     54,475 kbps     01:16:54.985    34,840 kbps     01:18:49.641    33,109 kbps     00:14:39.837    143,899 bytes   782,903 bytes   00:46:18.108    

STREAM DIAGNOSTICS:

File            PID             Type            Codec           Language                Seconds                 Bitrate                 Bytes           Packets         
----            ---             ----            -----           --------                --------------          --------------          -------------   -----           
00914.M2TS      4113 (0x1011)   0x1B            AVC                                     5217.129                27,601                  17,999,986,137  97,899,612      
00914.M2TS      4352 (0x1100)   0x86            DTS-HD MA       eng (English)           5217.129                2,533                   1,651,945,232   9,859,638       
00914.M2TS      4353 (0x1101)   0x81            AC3             bul (Bulgarian)         5217.129                640                     417,377,280     2,445,570       
00914.M2TS      4354 (0x1102)   0x81            AC3             hrv (Croatian)          5217.129                640                     417,377,280     2,445,570       
00914.M2TS      4355 (0x1103)   0x81            AC3             est (Estonian)          5217.129                640                     417,377,280     2,445,570       
00914.M2TS      4356 (0x1104)   0x81            AC3             ell (Greek)             5217.129                640                     417,377,280     2,445,570       
00914.M2TS      4357 (0x1105)   0x81            AC3             lav (Latvian)           5217.129                640                     417,377,280     2,445,570       
00914.M2TS      4358 (0x1106)   0x81            AC3             lit (Lithuanian)        5217.129                640                     417,377,280     2,445,570       
00914.M2TS      4359 (0x1107)   0x81            AC3             ron (Romanian)          5217.129                640                     417,377,280     2,445,570       
00914.M2TS      4360 (0x1108)   0x81            AC3             rus (Russian)           5217.129                640                     417,377,280     2,445,570       
00914.M2TS      4361 (0x1109)   0x81            AC3             slv (Slovenian)         5217.129                640                     417,377,280     2,445,570       
00914.M2TS      4362 (0x110A)   0x81            AC3             eng (English)           5217.129                192                     125,213,184     815,190         
00914.M2TS      4363 (0x110B)   0x81            AC3             ukr (Ukrainian)         5217.129                640                     417,377,280     2,445,570       
00914.M2TS      4608 (0x1200)   0x90            PGS             eng (English)           5217.129                32                      20,798,853      121,238         
00914.M2TS      4609 (0x1201)   0x90            PGS             bul (Bulgarian)         5217.129                33                      21,597,992      125,923         
00914.M2TS      4610 (0x1202)   0x90            PGS             hrv (Croatian)          5217.129                29                      18,906,588      111,292         
00914.M2TS      4611 (0x1203)   0x90            PGS             ell (Greek)             5217.129                32                      20,681,092      120,931         
00914.M2TS      4612 (0x1204)   0x90            PGS             ron (Romanian)          5217.129                30                      19,571,478      114,891         
00914.M2TS      4613 (0x1205)   0x90            PGS             srp (Serbian)           5217.129                30                      19,242,895      113,071         
00914.M2TS      4614 (0x1206)   0x90            PGS             slv (Slovenian)         5217.129                25                      16,042,436      95,200          
00914.M2TS      4615 (0x1207)   0x90            PGS             rus (Russian)           5217.129                0                       34,076          199             
00914.M2TS      4616 (0x1208)   0x90            PGS             por (Portuguese)        5217.129                0                       70              7               
00914.M2TS      4617 (0x1209)   0x90            PGS             slk (Slovak)            5217.129                0                       70              7               
00914.M2TS      4618 (0x120A)   0x90            PGS             tur (Turkish)           5217.129                0                       70              7               
00914.M2TS      4619 (0x120B)   0x90            PGS             eng (English)           5217.129                68                      44,554,866      252,728         
00914.M2TS      4620 (0x120C)   0x90            PGS             eng (English)           5217.129                0                       70              7               

[/code]
<---- END FORUMS PASTE ---->

QUICK SUMMARY:

Disc Title: Cloudy With A Chance Of Meatballs 2 – Blu-ray™
Disc Label: Cloudy.With.a.Chance.of.Meatballs.2.2013.1080p.CEE.Blu-ray.AVC.DTS-HD.MA.5.1-HDCLUB
Disc Size: 40,503,481,626 bytes
Protection: AACS
Playlist: 00456.MPLS
Size: 25,788,659,712 bytes
Length: 1:26:57.212
Total Bitrate: 39.54 Mbps
Video: MPEG-4 AVC Video / 27601 kbps / 1080p / 23.976 fps / 16:9 / High Profile 4.1
Audio: English / DTS-HD Master Audio / 5.1 / 48 kHz /  2533 kbps / 24-bit (DTS Core: 5.1 / 48 kHz /  1509 kbps / 24-bit)
Audio: Bulgarian / Dolby Digital Audio / 5.1 / 48 kHz /   640 kbps / DN -31dB
Audio: Croatian / Dolby Digital Audio / 5.1 / 48 kHz /   640 kbps / DN -31dB
Audio: Estonian / Dolby Digital Audio / 5.1 / 48 kHz /   640 kbps / DN -31dB
Audio: Greek / Dolby Digital Audio / 5.1 / 48 kHz /   640 kbps / DN -31dB
Audio: Latvian / Dolby Digital Audio / 5.1 / 48 kHz /   640 kbps / DN -31dB
Audio: Lithuanian / Dolby Digital Audio / 5.1 / 48 kHz /   640 kbps / DN -31dB
Audio: Romanian / Dolby Digital Audio / 5.1 / 48 kHz /   640 kbps / DN -31dB
Audio: Russian / Dolby Digital Audio / 5.1 / 48 kHz /   640 kbps / DN -31dB
Audio: Slovenian / Dolby Digital Audio / 5.1 / 48 kHz /   640 kbps / DN -31dB
Audio: English / Dolby Digital Audio / 2.0 / 48 kHz /   192 kbps / DN -31dB
Audio: Ukrainian / Dolby Digital Audio / 5.1 / 48 kHz /   640 kbps / DN -31dB
Subtitle: English / 31.893 kbps
Subtitle: Bulgarian / 33.118 kbps
Subtitle: Croatian / 28.991 kbps
Subtitle: Greek / 31.712 kbps
Subtitle: Romanian / 30.011 kbps
Subtitle: Serbian / 29.507 kbps
Subtitle: Slovenian / 24.599 kbps
Subtitle: Russian / 0.052 kbps
Subtitle: Portuguese / 0.000 kbps
Subtitle: Slovak / 0.000 kbps
Subtitle: Turkish / 0.000 kbps
Subtitle: English / 68.320 kbps
Subtitle: English / 0.000 kbps

